<?xml version="1.0" encoding="UTF-8" standalone="no"?>
<!-- Created with Inkscape (http://www.inkscape.org/) -->

<svg
   width="619.96558"
   height="369.23264"
   viewBox="0 0 619.96556 369.23263"
   version="1.1"
   id="svg1"
   sodipodi:docname="segmentation_2.svg"
   inkscape:version="1.4.3 (0d15f75, 2025-12-25)"
   inkscape:export-filename="segmentation_step_03.svg"
   inkscape:export-xdpi="96"
   inkscape:export-ydpi="96"
   xmlns:inkscape="http://www.inkscape.org/namespaces/inkscape"
   xmlns:sodipodi="http://sodipodi.sourceforge.net/DTD/sodipodi-0.dtd"
   xmlns="http://www.w3.org/2000/svg"
   xmlns:svg="http://www.w3.org/2000/svg">
  <sodipodi:namedview
     id="namedview1"
     pagecolor="#505050"
     bordercolor="#ffffff"
     borderopacity="1"
     inkscape:showpageshadow="0"
     inkscape:pageopacity="0"
     inkscape:pagecheckerboard="1"
     inkscape:deskcolor="#505050"
     inkscape:document-units="px"
     inkscape:zoom="0.35190708"
     inkscape:cx="-1996.2656"
     inkscape:cy="713.25646"
     inkscape:window-width="2560"
     inkscape:window-height="1370"
     inkscape:window-x="-6"
     inkscape:window-y="-6"
     inkscape:window-maximized="1"
     inkscape:current-layer="layer1">
    <inkscape:page
       x="0"
       y="0"
       width="619.96558"
       height="369.23264"
       id="page2"
       margin="0"
       bleed="0" />
  </sodipodi:namedview>
  <defs
     id="defs1" />
  <g
     inkscape:label="Layer 1"
     inkscape:groupmode="layer"
     id="layer1"
     transform="translate(1041.8723,-682.3722)">
    <g
       id="g30-6-1-8"
       transform="translate(67.323933,636.2581)"
       inkscape:label="Clip">
      <rect
         style="fill:#e5d5ff;fill-opacity:0.546667;stroke:#555555;stroke-width:5.18504;stroke-dasharray:none;stroke-opacity:1"
         id="rect1-1-0-0-7"
         width="309.49435"
         height="494.84134"
         x="-402.36975"
         y="-953.35864"
         inkscape:label="rect2"
         transform="matrix(0.36890973,-0.92946523,0.9999993,0.00118203,0,0)" />
      <path
         style="fill:#e4ffd5;fill-opacity:0.552941;stroke:#545454;stroke-width:5;stroke-dasharray:none;stroke-dashoffset:0;stroke-opacity:1"
         d="m -1089.2056,190.32275 451.01295,-140.72676 -16.2633,218.66327 -451.96035,143.5812 z"
         id="path61-7" />
      <path
         style="fill:#ffd42a;fill-opacity:0.552941;stroke:#000000;stroke-width:5;stroke-dasharray:none;stroke-dashoffset:0"
         d="m -1021.121,169.60152 -80.6751,203.26024 117.33305,0.1387 330.0071,-104.7412 13.67477,-182.651732 -112.64123,-0.05711 z"
         id="path62-8"
         sodipodi:nodetypes="ccccccc" />
      <g
         inkscape:label=""
         transform="matrix(0.68097223,0,0,0.68097223,-846.01405,215.81373)"
         id="g53-6"
         style="stroke-width:1.46849">
        <g
           fill="#000000"
           fill-opacity="1"
           id="g16-1-7"
           transform="matrix(1.33333,0,0,1.33333,-147.057,-3.01667)"
           style="stroke-width:1.46849">
          <g
             id="use12-1-1-1-1-1-1"
             transform="translate(109.59,24.325001)"
             style="stroke-width:1.46849">
            <path
               d="m 10.046875,0.09375 v -0.953125 l -1.53125,-0.09375 c -1.46875,-0.09375 -1.625,-0.359375 -1.625,-2.875 v -14.3125 c 0,-2.515625 0.15625,-2.765625 1.625,-2.859375 l 1.53125,-0.09375 v -0.96875 c -1.5625,0.0625 -3.125,0.09375 -4.6875,0.09375 -1.5625,0 -3.09375,-0.03125 -4.65625,-0.09375 v 0.96875 L 2.234375,-21 c 1.46875,0.09375 1.625,0.34375 1.625,2.859375 v 14.3125 c 0,2.515625 -0.15625,2.78125 -1.625,2.875 l -1.53125,0.09375 V 0.09375 C 2.265625,0.03125 3.796875,0 5.359375,0 c 1.5625,0 3.125,0.03125 4.6875,0.09375 z m 0,0"
               id="path27-1-1-1-1-4"
               style="stroke-width:1.46849" />
          </g>
          <g
             id="use13-1-1-1-1-1-0"
             transform="translate(120.33369,24.325001)"
             style="stroke-width:1.46849">
            <path
               d="m 18.234375,0.09375 v -0.953125 l -1.3125,-0.09375 C 15.84375,-1.015625 15.75,-1.21875 15.75,-3.25 v -6.15625 c 0,-3.71875 -1.75,-5.546875 -5.328125,-5.546875 -1.171875,0 -1.84375,0.234375 -2.515625,0.796875 l -2.421875,2.109375 v -2.78125 l -0.28125,-0.125 c -1.640625,0.671875 -3.296875,1.125 -4.984375,1.3125 V -12.75 h 1.1875 c 1.265625,0 1.40625,0.21875 1.40625,2.328125 V -3.25 c 0,2 -0.109375,2.234375 -1.1875,2.296875 l -1.4375,0.09375 V 0.09375 C 1.5,0.03125 2.84375,0 4.140625,0 c 1.3125,0 2.65625,0.03125 3.953125,0.09375 v -0.953125 l -1.4375,-0.09375 C 5.578125,-1.015625 5.484375,-1.25 5.484375,-3.25 v -6.765625 C 5.484375,-11.4375 7.59375,-13 9.53125,-13 c 2.140625,0 3.53125,1.59375 3.53125,4.046875 V 0.09375 C 13.890625,0.03125 14.765625,0 15.59375,0 c 0.890625,0 1.75,0.03125 2.640625,0.09375 z m 0,0"
               id="path28-1-1-1-1-6"
               style="stroke-width:1.46849" />
          </g>
          <g
             id="use14-1-1-1-1-1-1-1"
             transform="translate(138.88809,24.325001)"
             style="stroke-width:1.46849">
            <path
               d="m 10.171875,-13.890625 -4.375,0.1875 v -1.21875 c 0,-1.328125 0.09375,-2.484375 0.359375,-4.515625 L 5.765625,-19.796875 C 5,-19.3125 4.046875,-18.90625 3.0625,-18.578125 c 0.09375,0.953125 0.125,1.5625 0.125,2.515625 v 2.234375 l -2.484375,1.109375 v 0.671875 l 2.421875,-0.125 V -3 c 0,2.359375 1.046875,3.375 3.5,3.375 0.734375,0 1.5,-0.15625 1.6875,-0.375 L 9.84375,-1.6875 9.4375,-2.234375 C 8.640625,-1.78125 8.15625,-1.625 7.546875,-1.625 c -1.234375,0 -1.75,-0.640625 -1.75,-2.203125 v -8.34375 H 9.875 Z m 0,0"
               id="path29-1-1-1-1-2"
               style="stroke-width:1.46849" />
          </g>
          <g
             id="use15-1-1-1-1-1-1-1"
             transform="translate(149.2811,24.325001)"
             style="stroke-width:1.46849">
            <path
               d="m 14.28125,-8.890625 c 0,-3.671875 -2.359375,-6.0625 -5.9375,-6.0625 -1.171875,0 -2.546875,0.421875 -3.84375,1.1875 -2.625,1.5 -3.671875,3.46875 -3.671875,6.78125 0,2.015625 0.453125,3.734375 1.34375,4.9375 1.234375,1.703125 3.40625,2.6875 5.796875,2.6875 1.171875,0 2.359375,-0.265625 3.671875,-0.828125 0.859375,-0.359375 1.53125,-0.765625 1.65625,-0.953125 l 0.625,-1.09375 -0.40625,-0.3125 c -2.046875,1.203125 -2.78125,1.5 -4.140625,1.5 -2.078125,0 -3.796875,-0.921875 -4.6875,-2.484375 -0.609375,-1.0625 -0.828125,-1.953125 -0.890625,-3.796875 h 4.65625 c 2.1875,0 3.5625,-0.09375 5.765625,-0.453125 0.03125,-0.4375 0.0625,-0.734375 0.0625,-1.109375 z m -2.84375,0.375 -3.5625,0.09375 c -1.46875,0 -2.296875,-0.03125 -4.015625,-0.1875 0,-1.5 0.125,-2.203125 0.546875,-3.03125 0.65625,-1.390625 2.03125,-2.25 3.5625,-2.25 1.046875,0 1.875,0.40625 2.453125,1.265625 0.703125,1.046875 1.015625,1.984375 1.015625,4.109375 z m 0,0"
               id="path30-1-1-1-1-4"
               style="stroke-width:1.46849" />
          </g>
          <g
             id="use16-1-1-1-1-1-1-9"
             transform="translate(164.5518,24.325001)"
             style="stroke-width:1.46849">
            <path
               d="m 17.34375,-13.359375 -0.125,-0.375 -4.53125,0.125 c -1.1875,-0.953125 -2.328125,-1.34375 -3.890625,-1.34375 -1.40625,0 -3.03125,0.453125 -4.328125,1.21875 C 2.671875,-12.71875 1.75,-11.15625 1.75,-9.21875 c 0,2.359375 1.46875,3.984375 3.828125,4.25 L 3.0625,-3.03125 c -0.328125,0.484375 -0.484375,0.890625 -0.484375,1.375 0,0.890625 0.578125,1.40625 2.109375,1.84375 l -2.78125,1.5 c -0.4375,0.25 -0.890625,1.4375 -0.890625,2.421875 0,2.90625 2.84375,4.90625 6.890625,4.90625 4.8125,0 8.609375,-3.015625 8.609375,-6.90625 0,-2.296875 -1.53125,-3.890625 -3.765625,-3.890625 H 7.65625 c -1.65625,0 -2.421875,-0.390625 -2.421875,-1.25 0,-0.40625 0.25,-0.765625 1.078125,-1.46875 0.1875,-0.15625 0.25,-0.21875 0.375,-0.34375 0.328125,0.03125 0.515625,0.0625 0.765625,0.0625 1.375,0 3.0625,-0.609375 4.375,-1.53125 1.4375,-1.046875 2.140625,-2.328125 2.140625,-4.015625 0,-0.640625 -0.109375,-1.046875 -0.359375,-1.71875 h 2.9375 z M 11.28125,-9.375 c 0,2.078125 -1.34375,3.515625 -3.28125,3.515625 -2.140625,0 -3.5625,-1.65625 -3.5625,-4.125 0,-2.453125 1.171875,-3.875 3.21875,-3.875 2.15625,0 3.625,1.78125 3.625,4.484375 z M 14,3.25 C 14,6 11.46875,8.03125 8.125,8.03125 c -2.765625,0 -4.6875,-1.625 -4.6875,-3.984375 0,-1.4375 0.828125,-2.703125 2.109375,-3.28125 0.515625,-0.21875 1.40625,-0.3125 3.59375,-0.3125 C 12.75,0.453125 14,1.171875 14,3.25 Z m 0,0"
               id="path31-1-1-1-1-5"
               style="stroke-width:1.46849" />
          </g>
        </g>
        <g
           fill="#000000"
           fill-opacity="1"
           id="g17-1-1-2"
           transform="matrix(1.33333,0,0,1.33333,-147.057,-3.01667)"
           style="stroke-width:1.46849">
          <g
             id="use17-1-1-1-1-1-1-3"
             transform="translate(182.75552,24.325001)"
             style="stroke-width:1.46849">
            <path
               d="m 11.921875,-14.59375 c -0.34375,-0.234375 -0.921875,-0.359375 -1.5,-0.359375 -0.953125,0 -1.96875,0.515625 -2.640625,1.3125 L 6,-11.53125 v -3.296875 l -0.296875,-0.125 c -1.625,0.671875 -3.28125,1.125 -4.96875,1.3125 V -12.75 H 1.90625 c 1.28125,0 1.40625,0.21875 1.40625,2.328125 V -3.25 c 0,2 -0.09375,2.234375 -1.171875,2.296875 l -1.46875,0.09375 V 0.09375 C 1.96875,0.03125 3.28125,0 4.59375,0 6.125,0 7.625,0.03125 9.140625,0.09375 v -0.953125 l -1.65625,-0.09375 C 6.0625,-1.046875 6,-1.140625 6,-3.25 v -5.484375 c 0,-1.90625 1.265625,-3.5 2.828125,-3.5 0.953125,0 1.625,0.4375 2.140625,1.453125 h 0.671875 z m 0,0"
               id="path32-1-1-1-1-1-4"
               style="stroke-width:1.46849" />
          </g>
        </g>
        <g
           fill="#000000"
           fill-opacity="1"
           id="g22-1-1"
           transform="matrix(1.33333,0,0,1.33333,-147.057,-3.01667)"
           style="stroke-width:1.46849">
          <g
             id="use18-1-1-1-1-1-5"
             transform="translate(194.87007,24.325001)"
             style="stroke-width:1.46849">
            <path
               d="m 15.015625,0.09375 v -0.953125 l -1.25,-0.0625 C 13,-0.953125 12.875,-1.21875 12.875,-2.765625 v -5.84375 c 0,-4.65625 -1.34375,-6.34375 -5.03125,-6.34375 -1.375,0 -2.640625,0.359375 -3.859375,1.09375 l -1.6875,1.015625 v 2.0625 L 3.125,-10.546875 3.53125,-11.53125 c 0.640625,-1.5 1,-1.734375 2.46875,-1.734375 2.984375,0 4.234375,1.1875 4.328125,4.078125 l -3.15625,0.578125 C 2.84375,-7.8125 1.015625,-6.3125 1.015625,-3.53125 c 0,2.484375 1.5,3.90625 4.015625,3.90625 0.578125,0 1.125,-0.09375 1.34375,-0.25 l 3.953125,-2.734375 -0.15625,2.703125 C 11,0.03125 11.828125,0 12.65625,0 c 0.796875,0 1.5625,0.03125 2.359375,0.09375 z m -4.6875,-4.046875 c -0.921875,1.3125 -2.9375,2.515625 -4.171875,2.515625 -1.28125,0 -2.390625,-1.171875 -2.390625,-2.546875 0,-1.171875 0.640625,-2.296875 1.59375,-2.90625 0.796875,-0.46875 2.546875,-0.921875 4.96875,-1.265625 z m 0,0"
               id="path33-1-1-1-1-1-2"
               style="stroke-width:1.46849" />
          </g>
          <g
             id="use19-1-1-1-1-1-3"
             transform="translate(210.81027,24.325001)"
             style="stroke-width:1.46849">
            <path
               d="m 10.171875,-13.890625 -4.375,0.1875 v -1.21875 c 0,-1.328125 0.09375,-2.484375 0.359375,-4.515625 L 5.765625,-19.796875 C 5,-19.3125 4.046875,-18.90625 3.0625,-18.578125 c 0.09375,0.953125 0.125,1.5625 0.125,2.515625 v 2.234375 l -2.484375,1.109375 v 0.671875 l 2.421875,-0.125 V -3 c 0,2.359375 1.046875,3.375 3.5,3.375 0.734375,0 1.5,-0.15625 1.6875,-0.375 L 9.84375,-1.6875 9.4375,-2.234375 C 8.640625,-1.78125 8.15625,-1.625 7.546875,-1.625 c -1.234375,0 -1.75,-0.640625 -1.75,-2.203125 v -8.34375 H 9.875 Z m 0,0"
               id="path34-1-1-1-1-1-1"
               style="stroke-width:1.46849" />
          </g>
          <g
             id="use20-1-1-1-1-1-6"
             transform="translate(221.20328,24.325001)"
             style="stroke-width:1.46849">
            <path
               d="m 8.640625,0.09375 v -0.953125 l -1.46875,-0.09375 C 6.09375,-1.015625 6,-1.25 6,-3.25 v -11.578125 l -0.296875,-0.125 c -1.625,0.671875 -3.28125,1.125 -4.96875,1.3125 V -12.75 H 1.90625 c 1.28125,0 1.40625,0.21875 1.40625,2.328125 V -3.25 c 0,2 -0.09375,2.234375 -1.171875,2.296875 l -1.46875,0.09375 V 0.09375 C 2.015625,0.03125 3.3125,0 4.65625,0 6,0 7.296875,0.03125 8.640625,0.09375 Z M 6.25,-20.296875 c 0,-0.9375 -0.640625,-1.59375 -1.5625,-1.59375 -0.984375,0 -1.625,0.625 -1.625,1.59375 0,0.953125 0.640625,1.59375 1.59375,1.59375 0.953125,0 1.59375,-0.640625 1.59375,-1.59375 z m 0,0"
               id="path35-1-1-1-1-1-8"
               style="stroke-width:1.46849" />
          </g>
          <g
             id="use21-1-1-1-1-1-8"
             transform="translate(230.48048,24.325001)"
             style="stroke-width:1.46849">
            <path
               d="m 16.390625,-7.546875 c 0,-4.3125 -3.125,-7.40625 -7.5,-7.40625 -4.65625,0 -7.875,3.28125 -7.875,8.03125 0,4.5 2.84375,7.5625 6.953125,7.5625 4.90625,0 8.421875,-3.40625 8.421875,-8.1875 z M 13.421875,-6.375 c 0,3.671875 -1.625,5.953125 -4.203125,5.953125 -3.125,0 -5.234375,-3.046875 -5.234375,-7.578125 0,-3.828125 1.53125,-5.890625 4.328125,-5.890625 2.9375,0 5.109375,3.1875 5.109375,7.515625 z m 0,0"
               id="path36-1-1-1-1-1-1-2"
               style="stroke-width:1.46849" />
          </g>
          <g
             id="use22-1-1-1-1-1-7"
             transform="translate(247.88718,24.325001)"
             style="stroke-width:1.46849">
            <path
               d="m 18.234375,0.09375 v -0.953125 l -1.3125,-0.09375 C 15.84375,-1.015625 15.75,-1.21875 15.75,-3.25 v -6.15625 c 0,-3.71875 -1.75,-5.546875 -5.328125,-5.546875 -1.171875,0 -1.84375,0.234375 -2.515625,0.796875 l -2.421875,2.109375 v -2.78125 l -0.28125,-0.125 c -1.640625,0.671875 -3.296875,1.125 -4.984375,1.3125 V -12.75 h 1.1875 c 1.265625,0 1.40625,0.21875 1.40625,2.328125 V -3.25 c 0,2 -0.109375,2.234375 -1.1875,2.296875 l -1.4375,0.09375 V 0.09375 C 1.5,0.03125 2.84375,0 4.140625,0 c 1.3125,0 2.65625,0.03125 3.953125,0.09375 v -0.953125 l -1.4375,-0.09375 C 5.578125,-1.015625 5.484375,-1.25 5.484375,-3.25 v -6.765625 C 5.484375,-11.4375 7.59375,-13 9.53125,-13 c 2.140625,0 3.53125,1.59375 3.53125,4.046875 V 0.09375 C 13.890625,0.03125 14.765625,0 15.59375,0 c 0.890625,0 1.75,0.03125 2.640625,0.09375 z m 0,0"
               id="path37-1-1-1-1-1-7"
               style="stroke-width:1.46849" />
          </g>
        </g>
        <g
           fill="#000000"
           fill-opacity="1"
           id="g27-1"
           transform="matrix(1.33333,0,0,1.33333,-147.057,-3.01667)"
           style="stroke-width:1.46849">
          <g
             id="use23-1-1-1-1-1-2"
             transform="translate(153.043,62.581001)"
             style="stroke-width:1.46849">
            <path
               d="M 21.359375,-2.671875 21.0625,-3 c -1.96875,1.28125 -4.171875,1.921875 -6.59375,1.921875 -6.21875,0 -10.359375,-4.15625 -10.359375,-10.421875 0,-5.875 3.640625,-9.765625 9.125,-9.765625 3.125,0 6.34375,1.28125 6.34375,2.515625 v 2.296875 H 20.5625 c 0.03125,-1.59375 0.15625,-2.734375 0.609375,-4.84375 -2.71875,-0.890625 -5.046875,-1.296875 -7.375,-1.296875 -2.765625,0 -5.40625,0.65625 -7.546875,1.90625 -3.640625,2.140625 -5.546875,5.484375 -5.546875,9.78125 0,6.890625 5.03125,11.546875 12.53125,11.546875 2.640625,0 5.03125,-0.578125 7.234375,-1.71875 z m 0,0"
               id="path38-1-1-6"
               style="stroke-width:1.46849" />
          </g>
          <g
             id="use24-1-1-1-1-1-0"
             transform="translate(175.64621,62.581001)"
             style="stroke-width:1.46849">
            <path
               d="m 14.28125,-8.890625 c 0,-3.671875 -2.359375,-6.0625 -5.9375,-6.0625 -1.171875,0 -2.546875,0.421875 -3.84375,1.1875 -2.625,1.5 -3.671875,3.46875 -3.671875,6.78125 0,2.015625 0.453125,3.734375 1.34375,4.9375 1.234375,1.703125 3.40625,2.6875 5.796875,2.6875 1.171875,0 2.359375,-0.265625 3.671875,-0.828125 0.859375,-0.359375 1.53125,-0.765625 1.65625,-0.953125 l 0.625,-1.09375 -0.40625,-0.3125 c -2.046875,1.203125 -2.78125,1.5 -4.140625,1.5 -2.078125,0 -3.796875,-0.921875 -4.6875,-2.484375 -0.609375,-1.0625 -0.828125,-1.953125 -0.890625,-3.796875 h 4.65625 c 2.1875,0 3.5625,-0.09375 5.765625,-0.453125 0.03125,-0.4375 0.0625,-0.734375 0.0625,-1.109375 z m -2.84375,0.375 -3.5625,0.09375 c -1.46875,0 -2.296875,-0.03125 -4.015625,-0.1875 0,-1.5 0.125,-2.203125 0.546875,-3.03125 0.65625,-1.390625 2.03125,-2.25 3.5625,-2.25 1.046875,0 1.875,0.40625 2.453125,1.265625 0.703125,1.046875 1.015625,1.984375 1.015625,4.109375 z m 0,0"
               id="path39-1-1-4"
               style="stroke-width:1.46849" />
          </g>
          <g
             id="use25-1-1-9"
             transform="translate(190.91692,62.581001)"
             style="stroke-width:1.46849">
            <path
               d="m 8.640625,0.09375 v -0.953125 l -1.46875,-0.09375 C 6.09375,-1.015625 6,-1.25 6,-3.25 v -19.640625 l -0.296875,-0.25 C 4.296875,-22.59375 3.25,-22.34375 0.734375,-21.96875 v 0.90625 h 1.78125 c 0.578125,0 0.796875,0.34375 0.796875,1.296875 V -3.25 c 0,2 -0.09375,2.234375 -1.171875,2.296875 l -1.46875,0.09375 V 0.09375 C 2.015625,0.03125 3.3125,0 4.65625,0 6,0 7.296875,0.03125 8.640625,0.09375 Z m 0,0"
               id="path40-1-4"
               style="stroke-width:1.46849" />
          </g>
          <g
             id="use26-1-6"
             transform="translate(200.19411,62.581001)"
             style="stroke-width:1.46849">
            <path
               d="m 8.640625,0.09375 v -0.953125 l -1.46875,-0.09375 C 6.09375,-1.015625 6,-1.25 6,-3.25 v -19.640625 l -0.296875,-0.25 C 4.296875,-22.59375 3.25,-22.34375 0.734375,-21.96875 v 0.90625 h 1.78125 c 0.578125,0 0.796875,0.34375 0.796875,1.296875 V -3.25 c 0,2 -0.09375,2.234375 -1.171875,2.296875 l -1.46875,0.09375 V 0.09375 C 2.015625,0.03125 3.3125,0 4.65625,0 6,0 7.296875,0.03125 8.640625,0.09375 Z m 0,0"
               id="path41-1-0"
               style="stroke-width:1.46849" />
          </g>
          <g
             id="use27-1-3"
             transform="translate(209.47131,62.581001)"
             style="stroke-width:1.46849">
            <path
               d="m 12.46875,-4.71875 c 0,-0.984375 -0.265625,-1.71875 -0.890625,-2.359375 C 10.734375,-7.90625 9.6875,-8.25 6.890625,-8.796875 4.265625,-9.3125 3.40625,-9.9375 3.40625,-11.40625 c 0,-1.59375 1.125,-2.484375 3.0625,-2.484375 2.140625,0 3.765625,1.109375 3.765625,2.609375 v 0.734375 H 11.125 c 0.03125,-1.859375 0.0625,-2.625 0.15625,-3.609375 -1.6875,-0.5625 -2.828125,-0.796875 -4.140625,-0.796875 -3.703125,0 -5.96875,1.75 -5.96875,4.625 0,1.53125 0.703125,2.609375 2.171875,3.28125 0.859375,0.390625 2.546875,0.890625 4.71875,1.375 1.4375,0.3125 2.046875,0.984375 2.046875,2.203125 0,1.71875 -1.59375,2.921875 -3.859375,2.921875 -2.328125,0 -3.984375,-1.109375 -3.984375,-2.703125 V -4.5625 H 1.3125 c 0,2.203125 -0.09375,3.15625 -0.359375,4.4375 1.65625,0.546875 2.90625,0.765625 4.375,0.765625 4.171875,0 7.140625,-2.234375 7.140625,-5.359375 z m 0,0"
               id="path42-1-6"
               style="stroke-width:1.46849" />
          </g>
        </g>
      </g>
      <path
         style="fill:none;fill-opacity:0.546667;stroke:#000000;stroke-width:5;stroke-dasharray:none;stroke-dashoffset:0;stroke-opacity:1"
         d="m -953.79711,805.85962 36.658,203.39888"
         id="path63"
         transform="translate(-67.323933,-636.2581)" />
      <path
         style="fill:none;fill-opacity:0.546667;stroke:#000000;stroke-width:5;stroke-dasharray:none;stroke-dashoffset:0;stroke-opacity:1"
         d="m -917.13911,1009.2585 231.04063,-287.44998 98.96646,182.70884"
         id="path64"
         transform="translate(-67.323933,-636.2581)" />
      <g
         id="g65"
         inkscape:label="qpoints">
        <circle
           style="fill:#000000;fill-opacity:1;stroke:#000000;stroke-width:5;stroke-dasharray:none;stroke-dashoffset:0;stroke-opacity:1"
           id="path65"
           cx="-993.55011"
           cy="980.64642"
           r="3.5163739"
           transform="translate(-67.323933,-636.2581)" />
        <circle
           style="fill:#000000;fill-opacity:1;stroke:#000000;stroke-width:5;stroke-dasharray:none;stroke-dashoffset:0;stroke-opacity:1"
           id="path65-1"
           cx="-950.24109"
           cy="981.58044"
           r="3.5163739"
           transform="translate(-67.323933,-636.2581)" />
        <circle
           style="fill:#000000;fill-opacity:1;stroke:#000000;stroke-width:5;stroke-dasharray:none;stroke-dashoffset:0;stroke-opacity:1"
           id="path65-9"
           cx="-962.27386"
           cy="894.54846"
           r="3.5163739"
           transform="translate(-67.323933,-636.2581)" />
        <circle
           style="fill:#000000;fill-opacity:1;stroke:#000000;stroke-width:5;stroke-dasharray:none;stroke-dashoffset:0;stroke-opacity:1"
           id="path65-99"
           cx="-887.92792"
           cy="908.39368"
           r="3.5163739"
           transform="translate(-67.323933,-636.2581)" />
        <circle
           style="fill:#000000;fill-opacity:1;stroke:#000000;stroke-width:5;stroke-dasharray:none;stroke-dashoffset:0;stroke-opacity:1"
           id="path65-8"
           cx="-896.89948"
           cy="832.20184"
           r="3.5163739"
           transform="translate(-67.323933,-636.2581)" />
        <circle
           style="fill:#000000;fill-opacity:1;stroke:#000000;stroke-width:5;stroke-dasharray:none;stroke-dashoffset:0;stroke-opacity:1"
           id="path65-5"
           cx="-802.29321"
           cy="804.91223"
           r="3.5163739"
           transform="translate(-67.323933,-636.2581)" />
        <circle
           style="fill:#000000;fill-opacity:1;stroke:#000000;stroke-width:5;stroke-dasharray:none;stroke-dashoffset:0;stroke-opacity:1"
           id="path65-7"
           cx="-689.93799"
           cy="796.05493"
           r="3.5163739"
           transform="translate(-67.323933,-636.2581)" />
        <circle
           style="fill:#000000;fill-opacity:1;stroke:#000000;stroke-width:5;stroke-dasharray:none;stroke-dashoffset:0;stroke-opacity:1"
           id="path65-88"
           cx="-783.2005"
           cy="923.13623"
           r="3.5163739"
           transform="translate(-67.323933,-636.2581)" />
        <circle
           style="fill:#000000;fill-opacity:1;stroke:#000000;stroke-width:5;stroke-dasharray:none;stroke-dashoffset:0;stroke-opacity:1"
           id="path65-98"
           cx="-663.29321"
           cy="884.71539"
           r="3.5163739"
           transform="translate(-67.323933,-636.2581)" />
        <circle
           style="fill:#000000;fill-opacity:1;stroke:#000000;stroke-width:5;stroke-dasharray:none;stroke-dashoffset:0;stroke-opacity:1"
           id="path65-82"
           cx="-602.0036"
           cy="828.71539"
           r="3.5163739"
           transform="translate(-67.323933,-636.2581)" />
        <circle
           style="fill:#000000;fill-opacity:1;stroke:#000000;stroke-width:5;stroke-dasharray:none;stroke-dashoffset:0;stroke-opacity:1"
           id="path65-81"
           cx="-640.9765"
           cy="748.19043"
           r="3.5163739"
           transform="translate(-67.323933,-636.2581)" />
        <circle
           style="fill:#000000;fill-opacity:1;stroke:#000000;stroke-width:5;stroke-dasharray:none;stroke-dashoffset:0;stroke-opacity:1"
           id="path65-2"
           cx="-600.35883"
           cy="751.71539"
           r="3.5163739"
           transform="translate(-67.323933,-636.2581)" />
      </g>
    </g>
  </g>
</svg>
